<?xml version="1.0" encoding="UTF-8" standalone="no"?>
<!-- Created by Makercase v3 -->

<svg
   width="373.00mm"
   height="186.00mm"
   viewBox="-5 -181 373.00 186.00"
   version="1.1"
   id="svg6"
   sodipodi:docname="box-all2.svg"
   inkscape:version="1.4.2 (f4327f4, 2025-05-13)"
   xmlns:inkscape="http://www.inkscape.org/namespaces/inkscape"
   xmlns:sodipodi="http://sodipodi.sourceforge.net/DTD/sodipodi-0.dtd"
   xmlns="http://www.w3.org/2000/svg"
   xmlns:svg="http://www.w3.org/2000/svg">
  <defs
     id="defs6">
    <linearGradient
       id="swatch9"
       inkscape:swatch="solid">
      <stop
         style="stop-color:#000000;stop-opacity:1;"
         offset="0"
         id="stop9" />
    </linearGradient>
  </defs>
  <sodipodi:namedview
     id="namedview6"
     pagecolor="#ffffff"
     bordercolor="#000000"
     borderopacity="0.25"
     inkscape:showpageshadow="2"
     inkscape:pageopacity="0.0"
     inkscape:pagecheckerboard="0"
     inkscape:deskcolor="#d1d1d1"
     inkscape:document-units="mm"
     inkscape:zoom="1.5409669"
     inkscape:cx="366.00397"
     inkscape:cy="214.8002"
     inkscape:window-width="1728"
     inkscape:window-height="1010"
     inkscape:window-x="-6"
     inkscape:window-y="-6"
     inkscape:window-maximized="1"
     inkscape:current-layer="svg6" />
  <path
     d="M27.000 -1.250L27.000 0.000L41.000 0.000L41.000 -1.250L55.000 -1.250L55.000 0.000L69.000 0.000L69.000 -1.250L83.000 -1.250L83.000 0.000L97.000 0.000L97.000 -1.250L111.000 -1.250L111.000 0.000L125.000 0.000L125.000 -1.250L139.000 -1.250L139.000 0.000L153.000 0.000L153.000 -1.250L167.000 -1.250L167.000 0.000L178.750 0.000L178.750 -1.250L178.750 -4.000L180.000 -4.000L180.000 -18.000L178.750 -18.000L178.750 -32.000L180.000 -32.000L180.000 -46.000L178.750 -46.000L178.750 -48.750L178.750 -50.000L167.000 -50.000L167.000 -48.750L153.000 -48.750L153.000 -50.000L139.000 -50.000L139.000 -48.750L125.000 -48.750L125.000 -50.000L111.000 -50.000L111.000 -48.750L97.000 -48.750L97.000 -50.000L83.000 -50.000L83.000 -48.750L69.000 -48.750L69.000 -50.000L55.000 -50.000L55.000 -48.750L41.000 -48.750L41.000 -50.000L27.000 -50.000L27.000 -48.750L13.000 -48.750L13.000 -50.000L1.250 -50.000L1.250 -48.750L1.250 -46.000L0.000 -46.000L0.000 -32.000L1.250 -32.000L1.250 -18.000L0.000 -18.000L0.000 -4.000L1.250 -4.000L1.250 -1.250L1.250 0.000L13.000 0.000L13.000 -1.250L27.000 -1.250Z"
     fill="none"
     stroke="#ff0000"
     stroke-width="0.100"
     id="path1" />
  <path
     d="M210.000 -1.250L210.000 0.000L224.000 0.000L224.000 -1.250L238.000 -1.250L238.000 0.000L252.000 0.000L252.000 -1.250L266.000 -1.250L266.000 0.000L280.000 0.000L280.000 -1.250L294.000 -1.250L294.000 0.000L308.000 0.000L308.000 -1.250L322.000 -1.250L322.000 0.000L336.000 0.000L336.000 -1.250L350.000 -1.250L350.000 0.000L361.750 0.000L361.750 -1.250L361.750 -4.000L363.000 -4.000L363.000 -18.000L361.750 -18.000L361.750 -32.000L363.000 -32.000L363.000 -46.000L361.750 -46.000L361.750 -48.750L361.750 -50.000L350.000 -50.000L350.000 -48.750L336.000 -48.750L336.000 -50.000L322.000 -50.000L322.000 -48.750L308.000 -48.750L308.000 -50.000L294.000 -50.000L294.000 -48.750L280.000 -48.750L280.000 -50.000L266.000 -50.000L266.000 -48.750L252.000 -48.750L252.000 -50.000L238.000 -50.000L238.000 -48.750L224.000 -48.750L224.000 -50.000L210.000 -50.000L210.000 -48.750L196.000 -48.750L196.000 -50.000L184.250 -50.000L184.250 -48.750L184.250 -46.000L183.000 -46.000L183.000 -32.000L184.250 -32.000L184.250 -18.000L183.000 -18.000L183.000 -4.000L184.250 -4.000L184.250 -1.250L184.250 0.000L196.000 0.000L196.000 -1.250L210.000 -1.250Z"
     fill="none"
     stroke="#ff0000"
     stroke-width="0.100"
     id="path2" />
  <path
     d="M28.000 -54.250L28.000 -53.000L42.000 -53.000L42.000 -54.250L56.000 -54.250L56.000 -53.000L68.750 -53.000L70.000 -53.000L70.000 -54.250L70.000 -57.000L68.750 -57.000L68.750 -71.000L70.000 -71.000L70.000 -85.000L68.750 -85.000L68.750 -99.000L70.000 -99.000L70.000 -101.750L70.000 -103.000L68.750 -103.000L56.000 -103.000L56.000 -101.750L42.000 -101.750L42.000 -103.000L28.000 -103.000L28.000 -101.750L14.000 -101.750L14.000 -103.000L1.250 -103.000L0.000 -103.000L0.000 -101.750L0.000 -99.000L1.250 -99.000L1.250 -85.000L0.000 -85.000L0.000 -71.000L1.250 -71.000L1.250 -57.000L0.000 -57.000L0.000 -54.250L0.000 -53.000L1.250 -53.000L14.000 -53.000L14.000 -54.250L28.000 -54.250Z"
     fill="none"
     stroke="#ff0000"
     stroke-width="0.100"
     id="path3" />
  <path
     d="M101.000 -54.250L101.000 -53.000L115.000 -53.000L115.000 -54.250L129.000 -54.250L129.000 -53.000L141.750 -53.000L143.000 -53.000L143.000 -54.250L143.000 -57.000L141.750 -57.000L141.750 -71.000L143.000 -71.000L143.000 -85.000L141.750 -85.000L141.750 -99.000L143.000 -99.000L143.000 -101.750L143.000 -103.000L141.750 -103.000L129.000 -103.000L129.000 -101.750L115.000 -101.750L115.000 -103.000L101.000 -103.000L101.000 -101.750L87.000 -101.750L87.000 -103.000L74.250 -103.000L73.000 -103.000L73.000 -101.750L73.000 -99.000L74.250 -99.000L74.250 -85.000L73.000 -85.000L73.000 -71.000L74.250 -71.000L74.250 -57.000L73.000 -57.000L73.000 -54.250L73.000 -53.000L74.250 -53.000L87.000 -53.000L87.000 -54.250L101.000 -54.250Z"
     fill="none"
     stroke="#ff0000"
     stroke-width="0.100"
     id="path4" />
  <path
     d="M41.000 -107.250L41.000 -106.000L55.000 -106.000L55.000 -107.250L69.000 -107.250L69.000 -106.000L83.000 -106.000L83.000 -107.250L97.000 -107.250L97.000 -106.000L111.000 -106.000L111.000 -107.250L125.000 -107.250L125.000 -106.000L139.000 -106.000L139.000 -107.250L153.000 -107.250L153.000 -106.000L167.000 -106.000L167.000 -107.250L178.750 -107.250L178.750 -120.000L180.000 -120.000L180.000 -134.000L178.750 -134.000L178.750 -148.000L180.000 -148.000L180.000 -162.000L178.750 -162.000L178.750 -174.750L167.000 -174.750L167.000 -176.000L153.000 -176.000L153.000 -174.750L139.000 -174.750L139.000 -176.000L125.000 -176.000L125.000 -174.750L111.000 -174.750L111.000 -176.000L97.000 -176.000L97.000 -174.750L83.000 -174.750L83.000 -176.000L69.000 -176.000L69.000 -174.750L55.000 -174.750L55.000 -176.000L41.000 -176.000L41.000 -174.750L27.000 -174.750L27.000 -176.000L13.000 -176.000L13.000 -174.750L1.250 -174.750L1.250 -162.000L0.000 -162.000L0.000 -148.000L1.250 -148.000L1.250 -134.000L0.000 -134.000L0.000 -120.000L1.250 -120.000L1.250 -107.250L13.000 -107.250L13.000 -106.000L27.000 -106.000L27.000 -107.250L41.000 -107.250Z"
     fill="none"
     stroke="#ff0000"
     stroke-width="0.100"
     id="path5" />
  <path
     d="M224.000 -107.250L224.000 -106.000L238.000 -106.000L238.000 -107.250L252.000 -107.250L252.000 -106.000L266.000 -106.000L266.000 -107.250L280.000 -107.250L280.000 -106.000L294.000 -106.000L294.000 -107.250L308.000 -107.250L308.000 -106.000L322.000 -106.000L322.000 -107.250L336.000 -107.250L336.000 -106.000L350.000 -106.000L350.000 -107.250L361.750 -107.250L361.750 -120.000L363.000 -120.000L363.000 -134.000L361.750 -134.000L361.750 -148.000L363.000 -148.000L363.000 -162.000L361.750 -162.000L361.750 -174.750L350.000 -174.750L350.000 -176.000L336.000 -176.000L336.000 -174.750L322.000 -174.750L322.000 -176.000L308.000 -176.000L308.000 -174.750L294.000 -174.750L294.000 -176.000L280.000 -176.000L280.000 -174.750L266.000 -174.750L266.000 -176.000L252.000 -176.000L252.000 -174.750L238.000 -174.750L238.000 -176.000L224.000 -176.000L224.000 -174.750L210.000 -174.750L210.000 -176.000L196.000 -176.000L196.000 -174.750L184.250 -174.750L184.250 -162.000L183.000 -162.000L183.000 -148.000L184.250 -148.000L184.250 -134.000L183.000 -134.000L183.000 -120.000L184.250 -120.000L184.250 -107.250L196.000 -107.250L196.000 -106.000L210.000 -106.000L210.000 -107.250L224.000 -107.250Z"
     fill="none"
     stroke="#ff0000"
     stroke-width="0.100"
     id="path6" />
  <rect
     style="fill:none;stroke-width:0.264583"
     id="rect6"
     width="71"
     height="24"
     x="12.792152"
     y="-153.07147" />
  <rect
     style="fill:none;stroke-width:0.264583;stroke:#ff0000;stroke-opacity:1"
     id="rect7"
     width="60"
     height="49"
     x="107.16441"
     y="-165.41602" />
  <circle
     style="fill:none;stroke:#ff0000;stroke-width:0.264583;stroke-opacity:1"
     id="circle7"
     cx="95.444244"
     cy="-141.42326"
     r="3.5" />
  <rect
     style="fill:none;stroke-width:0.264583"
     id="rect8"
     width="71"
     height="24"
     x="12.792152"
     y="-153.07147" />
  <rect
     style="fill:none;stroke-width:0.264583;stroke:#ff0000;stroke-opacity:1"
     id="rect9"
     width="71"
     height="24"
     x="12.792152"
     y="-153.07147" />
</svg>
