<?xml version="1.0" encoding="UTF-8"?>
<!-- Created by Makercase v3 -->
<svg width="409.00mm" height="461.50mm" viewBox="-5 -455 409.00 461.50" version="1.1" xmlns="http://www.w3.org/2000/svg" xmlns:xlink="http://www.w3.org/1999/xlink"><path d="M34.250 -1.500L34.250 1.500L52.750 1.500L52.750 -1.500L71.250 -1.500L71.250 1.500L89.750 1.500L89.750 -1.500L108.250 -1.500L108.250 1.500L126.750 1.500L126.750 -1.500L145.250 -1.500L145.250 1.500L163.750 1.500L163.750 -1.500L182.250 -1.500L182.250 1.500L195.000 1.500L195.000 -1.500L195.000 -15.250L198.000 -15.250L198.000 -33.750L195.000 -33.750L195.000 -52.250L198.000 -52.250L198.000 -70.750L195.000 -70.750L195.000 -89.250L198.000 -89.250L198.000 -107.750L195.000 -107.750L195.000 -121.500L3.000 -121.500L3.000 -107.750L0.000 -107.750L0.000 -89.250L3.000 -89.250L3.000 -70.750L0.000 -70.750L0.000 -52.250L3.000 -52.250L3.000 -33.750L0.000 -33.750L0.000 -15.250L3.000 -15.250L3.000 -1.500L3.000 1.500L15.750 1.500L15.750 -1.500L34.250 -1.500Z" fill="none" stroke="#ff0000" stroke-width="0.100"></path>
<path d="M235.250 -1.500L235.250 1.500L253.750 1.500L253.750 -1.500L272.250 -1.500L272.250 1.500L290.750 1.500L290.750 -1.500L309.250 -1.500L309.250 1.500L327.750 1.500L327.750 -1.500L346.250 -1.500L346.250 1.500L364.750 1.500L364.750 -1.500L383.250 -1.500L383.250 1.500L396.000 1.500L396.000 -1.500L396.000 -15.250L399.000 -15.250L399.000 -33.750L396.000 -33.750L396.000 -52.250L399.000 -52.250L399.000 -70.750L396.000 -70.750L396.000 -89.250L399.000 -89.250L399.000 -107.750L396.000 -107.750L396.000 -121.500L204.000 -121.500L204.000 -107.750L201.000 -107.750L201.000 -89.250L204.000 -89.250L204.000 -70.750L201.000 -70.750L201.000 -52.250L204.000 -52.250L204.000 -33.750L201.000 -33.750L201.000 -15.250L204.000 -15.250L204.000 -1.500L204.000 1.500L216.750 1.500L216.750 -1.500L235.250 -1.500Z" fill="none" stroke="#ff0000" stroke-width="0.100"></path>
<path d="M34.250 -127.500L34.250 -124.500L52.750 -124.500L52.750 -127.500L71.250 -127.500L71.250 -124.500L89.750 -124.500L89.750 -127.500L108.250 -127.500L108.250 -124.500L126.750 -124.500L126.750 -127.500L145.250 -127.500L145.250 -124.500L163.750 -124.500L163.750 -127.500L182.250 -127.500L182.250 -124.500L195.000 -124.500L198.000 -124.500L198.000 -127.500L198.000 -141.250L195.000 -141.250L195.000 -159.750L198.000 -159.750L198.000 -178.250L195.000 -178.250L195.000 -196.750L198.000 -196.750L198.000 -215.250L195.000 -215.250L195.000 -233.750L198.000 -233.750L198.000 -247.500L195.000 -247.500L3.000 -247.500L0.000 -247.500L0.000 -233.750L3.000 -233.750L3.000 -215.250L0.000 -215.250L0.000 -196.750L3.000 -196.750L3.000 -178.250L0.000 -178.250L0.000 -159.750L3.000 -159.750L3.000 -141.250L0.000 -141.250L0.000 -127.500L0.000 -124.500L3.000 -124.500L15.750 -124.500L15.750 -127.500L34.250 -127.500Z" fill="none" stroke="#ff0000" stroke-width="0.100"></path>
<path d="M235.250 -127.500L235.250 -124.500L253.750 -124.500L253.750 -127.500L272.250 -127.500L272.250 -124.500L290.750 -124.500L290.750 -127.500L309.250 -127.500L309.250 -124.500L327.750 -124.500L327.750 -127.500L346.250 -127.500L346.250 -124.500L364.750 -124.500L364.750 -127.500L383.250 -127.500L383.250 -124.500L396.000 -124.500L399.000 -124.500L399.000 -127.500L399.000 -141.250L396.000 -141.250L396.000 -159.750L399.000 -159.750L399.000 -178.250L396.000 -178.250L396.000 -196.750L399.000 -196.750L399.000 -215.250L396.000 -215.250L396.000 -233.750L399.000 -233.750L399.000 -247.500L396.000 -247.500L204.000 -247.500L201.000 -247.500L201.000 -233.750L204.000 -233.750L204.000 -215.250L201.000 -215.250L201.000 -196.750L204.000 -196.750L204.000 -178.250L201.000 -178.250L201.000 -159.750L204.000 -159.750L204.000 -141.250L201.000 -141.250L201.000 -127.500L201.000 -124.500L204.000 -124.500L216.750 -124.500L216.750 -127.500L235.250 -127.500Z" fill="none" stroke="#ff0000" stroke-width="0.100"></path>
<path d="M52.750 -255.000L52.750 -252.000L71.250 -252.000L71.250 -255.000L89.750 -255.000L89.750 -252.000L108.250 -252.000L108.250 -255.000L126.750 -255.000L126.750 -252.000L145.250 -252.000L145.250 -255.000L163.750 -255.000L163.750 -252.000L182.250 -252.000L182.250 -255.000L195.000 -255.000L195.000 -267.750L198.000 -267.750L198.000 -286.250L195.000 -286.250L195.000 -304.750L198.000 -304.750L198.000 -323.250L195.000 -323.250L195.000 -341.750L198.000 -341.750L198.000 -360.250L195.000 -360.250L195.000 -378.750L198.000 -378.750L198.000 -397.250L195.000 -397.250L195.000 -415.750L198.000 -415.750L198.000 -434.250L195.000 -434.250L195.000 -447.000L182.250 -447.000L182.250 -450.000L163.750 -450.000L163.750 -447.000L145.250 -447.000L145.250 -450.000L126.750 -450.000L126.750 -447.000L108.250 -447.000L108.250 -450.000L89.750 -450.000L89.750 -447.000L71.250 -447.000L71.250 -450.000L52.750 -450.000L52.750 -447.000L34.250 -447.000L34.250 -450.000L15.750 -450.000L15.750 -447.000L3.000 -447.000L3.000 -434.250L0.000 -434.250L0.000 -415.750L3.000 -415.750L3.000 -397.250L0.000 -397.250L0.000 -378.750L3.000 -378.750L3.000 -360.250L0.000 -360.250L0.000 -341.750L3.000 -341.750L3.000 -323.250L0.000 -323.250L0.000 -304.750L3.000 -304.750L3.000 -286.250L0.000 -286.250L0.000 -267.750L3.000 -267.750L3.000 -255.000L15.750 -255.000L15.750 -252.000L34.250 -252.000L34.250 -255.000L52.750 -255.000Z" fill="none" stroke="#ff0000" stroke-width="0.100"></path></svg>